<?xml version="1.0" encoding="UTF-8" ?>
<!DOCTYPE svg PUBLIC "-//W3C//DTD SVG 1.1//EN" "http://www.w3.org/Graphics/SVG/1.1/DTD/svg11.dtd">
<svg width="483pt" height="305pt" viewBox="0 0 483 305" version="1.1" xmlns="http://www.w3.org/2000/svg">
<path fill="#0f0f0f" d=" M 0.00 0.00 L 483.00 0.00 L 483.00 305.00 L 0.00 305.00 L 0.00 0.00 Z" />
<path fill="#7db22f" d=" M 238.01 48.01 C 241.99 44.22 247.36 42.62 252.60 41.49 C 252.61 47.78 251.47 54.42 247.35 59.40 C 243.16 64.96 236.47 68.94 229.38 68.85 C 228.87 61.00 231.89 53.06 238.01 48.01 Z" />
<path fill="#7db22f" d=" M 188.00 82.27 C 193.08 74.11 202.07 67.64 212.01 68.10 C 218.49 67.74 224.24 71.12 230.37 72.54 C 236.96 73.98 242.54 69.20 248.87 68.49 C 254.88 67.72 261.47 67.88 266.75 71.21 C 270.33 73.25 273.30 76.14 276.15 79.07 C 274.61 80.16 273.07 81.24 271.53 82.33 C 243.69 82.33 215.84 82.45 188.00 82.27 Z" />
<path fill="#ffc60d" d=" M 187.74 82.27 L 188.00 82.27 C 215.84 82.45 243.69 82.33 271.53 82.33 C 267.31 86.04 264.81 91.13 263.59 96.55 L 263.45 96.55 C 236.73 96.32 210.02 96.53 183.30 96.44 C 184.17 91.56 185.40 86.68 187.74 82.27 Z" />
<path fill="#fe8a1a" d=" M 183.30 96.44 C 210.02 96.53 236.73 96.32 263.45 96.55 C 263.11 101.35 263.79 106.12 265.29 110.68 C 238.09 110.46 210.89 110.62 183.69 110.60 C 183.17 105.90 183.19 101.17 183.30 96.44 Z" />
<path fill="#df2d21" d=" M 183.69 110.60 C 210.89 110.62 238.09 110.46 265.29 110.68 C 268.21 116.92 273.75 121.24 279.65 124.48 C 279.43 124.48 278.98 124.50 278.76 124.51 C 248.36 124.87 217.95 124.72 187.55 124.58 C 185.29 120.27 185.04 115.23 183.69 110.60 Z" />
<path fill="#a7286b" d=" M 187.55 124.58 C 217.95 124.72 248.36 124.87 278.76 124.51 C 276.88 129.86 273.96 134.72 270.78 139.39 C 245.65 139.14 220.53 139.47 195.41 139.23 C 191.74 134.99 189.88 129.59 187.55 124.58 Z" />
<path fill="#00a2d5" d=" M 195.41 139.23 C 220.53 139.47 245.65 139.14 270.78 139.39 C 266.39 145.56 261.19 152.67 253.10 153.69 C 247.21 154.55 242.83 149.32 237.10 149.20 C 232.64 148.91 227.92 148.73 223.80 150.79 C 219.87 152.64 215.52 154.60 211.09 153.42 C 204.01 151.36 199.07 145.30 195.41 139.23 Z" />
<path fill="#ffffff" d=" M 161.84 209.89 C 165.25 208.42 168.57 206.73 171.92 205.11 C 172.58 207.64 172.07 210.27 172.08 212.85 C 171.99 221.55 172.12 230.26 171.97 238.96 C 175.70 235.35 179.59 231.88 182.95 227.90 C 181.71 227.25 180.47 226.63 179.22 226.03 L 179.43 224.52 C 183.48 225.04 187.58 225.13 191.65 224.67 L 191.88 225.99 C 186.36 228.17 182.45 232.77 178.26 236.74 C 181.50 241.83 184.78 246.89 188.02 251.98 C 189.47 254.48 192.26 255.54 194.43 257.28 C 189.27 258.04 184.00 257.14 178.80 257.76 C 178.45 257.32 177.74 256.42 177.39 255.98 C 178.37 255.73 180.33 255.23 181.31 254.99 C 178.77 249.87 175.74 244.92 172.39 240.30 C 171.83 244.52 172.00 248.80 172.09 253.05 C 171.83 255.19 174.57 255.07 175.86 255.88 C 175.78 256.36 175.61 257.33 175.52 257.81 C 169.35 256.89 163.15 258.13 156.96 257.51 C 154.03 257.17 151.12 257.78 148.19 257.76 C 146.81 254.88 151.80 255.59 151.34 252.90 C 151.19 245.29 151.99 237.59 150.44 230.08 C 148.28 228.65 145.71 226.98 143.02 228.08 C 139.86 229.21 138.82 232.90 138.85 235.94 C 138.86 242.07 138.89 248.20 138.90 254.33 C 140.46 254.95 142.02 255.53 143.59 256.14 C 143.17 256.53 142.33 257.32 141.91 257.71 C 137.67 257.53 133.42 257.28 129.19 257.79 C 129.12 257.29 128.99 256.28 128.92 255.77 C 130.04 255.31 131.16 254.84 132.27 254.36 C 132.27 247.23 132.40 240.08 132.23 232.95 C 132.24 231.19 130.12 230.53 129.14 229.35 C 132.28 227.46 134.98 224.43 138.31 223.14 C 138.54 225.06 138.56 226.98 138.67 228.91 C 140.65 225.67 144.14 223.32 147.99 223.19 C 150.68 223.01 152.98 224.53 155.27 225.68 C 160.17 234.82 156.52 245.47 158.48 255.23 C 160.81 255.25 163.37 255.81 165.49 254.53 C 166.05 241.04 165.62 227.50 165.75 213.99 C 166.32 211.50 163.34 210.99 161.84 209.89 Z" />
<path fill="#ffffff" d=" M 228.48 209.81 C 231.97 208.42 235.23 206.53 238.68 205.08 C 238.54 219.72 238.55 234.38 238.58 249.03 C 238.51 250.83 238.89 252.59 239.37 254.31 C 240.14 253.69 241.69 252.43 242.46 251.81 C 242.42 252.58 242.34 254.12 242.30 254.89 C 239.42 256.39 236.44 257.67 233.59 259.22 C 233.15 257.97 232.71 256.71 232.28 255.45 C 229.95 257.47 227.21 259.26 223.98 259.18 C 216.76 258.92 210.85 252.10 210.59 245.08 C 210.23 239.59 210.34 233.49 214.22 229.15 C 217.89 223.29 226.00 221.89 232.09 224.52 C 232.15 220.33 232.22 216.13 231.82 211.95 C 230.68 211.28 229.56 210.57 228.48 209.81 Z" />
<path fill="#ffffff" d=" M 266.64 212.82 C 268.81 208.26 273.60 204.39 278.91 205.35 C 280.83 205.51 281.92 207.27 283.11 208.55 C 282.12 210.35 281.10 212.14 279.99 213.88 C 278.18 211.81 276.55 209.60 274.73 207.54 C 269.92 211.77 271.40 218.91 271.18 224.61 C 273.68 224.70 276.19 224.71 278.70 224.74 C 278.68 225.67 278.67 226.60 278.66 227.53 C 276.15 227.56 273.64 227.55 271.14 227.59 C 270.92 236.48 270.86 245.39 271.19 254.28 C 272.97 254.86 274.80 255.31 276.57 255.95 C 276.37 256.38 275.96 257.24 275.76 257.67 C 270.77 257.62 265.76 257.11 260.79 257.88 C 260.58 257.21 260.37 256.54 260.17 255.88 C 261.66 255.31 263.38 255.10 264.66 254.07 C 265.41 245.35 264.86 236.56 264.95 227.82 C 263.75 227.64 262.54 227.48 261.34 227.32 C 261.28 226.97 261.18 226.26 261.12 225.91 C 262.38 225.22 263.88 224.83 264.93 223.80 C 265.77 220.19 265.07 216.27 266.64 212.82 Z" />
<path fill="#ffffff" d=" M 289.41 208.35 C 291.96 205.41 296.48 204.36 300.03 206.00 C 303.29 207.56 301.47 212.38 298.92 213.55 C 297.14 211.71 295.77 209.52 294.14 207.56 C 288.87 211.51 291.18 219.00 290.65 224.65 C 293.07 224.69 295.49 224.70 297.91 224.73 C 297.89 225.43 297.85 226.83 297.84 227.53 C 295.42 227.56 293.00 227.57 290.59 227.63 C 290.61 236.57 290.42 245.53 290.71 254.47 C 292.39 254.93 294.08 255.34 295.78 255.71 C 295.72 256.22 295.58 257.25 295.52 257.76 C 290.22 257.45 284.93 257.29 279.64 257.79 C 279.62 257.30 279.59 256.32 279.57 255.83 C 281.12 255.04 283.98 255.30 284.04 252.99 C 284.47 244.65 284.09 236.28 284.22 227.93 C 282.95 227.40 280.82 227.93 280.48 226.16 C 281.65 225.32 282.94 224.65 284.11 223.81 C 285.04 218.51 284.49 211.87 289.41 208.35 Z" />
<path fill="#ffffff" d=" M 80.01 209.80 C 83.50 208.26 86.91 206.54 90.32 204.81 C 90.30 212.90 90.17 220.99 90.27 229.08 C 90.83 228.03 91.40 226.99 91.95 225.94 C 95.02 224.07 98.68 222.08 102.30 223.82 C 106.02 224.73 107.53 228.58 108.28 231.95 C 108.83 238.93 108.26 245.94 108.56 252.93 C 108.34 254.82 110.67 255.09 111.82 256.01 C 111.78 256.44 111.70 257.31 111.66 257.75 C 107.04 257.26 102.41 257.46 97.79 257.76 C 97.76 257.27 97.70 256.29 97.67 255.80 C 99.13 255.12 101.86 255.34 101.79 253.13 C 102.09 247.07 102.04 240.98 101.79 234.91 C 101.48 232.34 101.12 228.70 98.03 228.03 C 94.77 226.65 90.40 229.29 90.43 232.94 C 90.11 240.21 90.10 247.53 90.50 254.81 C 91.99 255.26 95.29 255.24 93.84 257.70 C 89.11 257.44 84.38 257.23 79.65 257.78 C 79.57 257.31 79.42 256.37 79.34 255.91 C 80.79 255.14 83.75 255.22 83.61 252.98 C 83.64 240.00 83.69 227.02 83.59 214.05 C 83.85 211.76 81.46 210.96 80.01 209.80 Z" />
<path fill="#ffffff" d=" M 47.37 207.10 C 48.95 206.82 49.00 209.06 49.86 209.88 C 58.67 210.02 67.49 210.14 76.29 209.86 C 77.23 208.61 78.21 207.38 79.24 206.21 C 79.55 210.91 79.41 215.66 78.77 220.32 C 78.32 220.65 77.44 221.32 76.99 221.66 C 76.30 219.43 75.77 217.16 75.35 214.87 C 72.61 212.66 69.06 212.41 65.67 212.51 C 65.52 226.49 65.45 240.48 65.71 254.46 C 67.64 254.93 69.58 255.35 71.50 255.84 C 70.48 258.31 67.91 257.33 65.99 257.32 C 61.95 256.80 57.89 257.37 53.85 257.58 C 53.61 257.11 53.14 256.17 52.90 255.71 C 54.74 255.31 56.57 254.89 58.37 254.37 C 58.99 242.26 58.45 230.11 58.66 217.98 C 58.50 216.23 59.04 214.22 58.03 212.66 C 55.84 212.44 53.46 212.45 51.53 213.67 C 48.51 215.69 47.49 219.55 44.40 221.54 C 45.21 216.70 45.67 211.72 47.37 207.10 Z" />
<path fill="#ffffff" d=" M 118.66 210.62 C 121.62 207.97 125.17 212.95 123.62 215.77 C 123.03 217.74 121.17 218.55 119.25 218.64 C 117.29 216.37 116.02 212.94 118.66 210.62 Z" />
<path fill="#ffffff" d=" M 250.37 210.27 C 251.83 209.00 254.24 210.55 254.68 212.23 C 256.05 214.61 254.38 217.41 252.20 218.59 C 248.09 218.56 246.98 212.31 250.37 210.27 Z" />
<path fill="#ffffff" d=" M 414.94 220.68 C 416.06 219.31 416.79 217.35 418.66 216.87 C 419.08 219.42 419.00 222.02 419.10 224.61 C 421.48 224.69 423.86 224.72 426.25 224.75 C 426.26 225.51 426.28 227.04 426.29 227.81 C 423.89 227.94 421.49 228.01 419.09 228.14 C 418.88 235.10 418.96 242.07 418.99 249.03 C 418.85 251.21 419.80 253.19 420.90 255.01 C 423.06 254.19 425.16 253.24 427.31 252.39 C 426.21 256.41 422.14 259.22 418.04 259.14 C 414.49 258.99 412.71 255.15 412.46 252.05 C 412.04 244.22 412.68 236.36 412.61 228.52 C 411.17 228.03 409.75 227.55 408.37 226.96 C 410.66 224.99 413.25 223.25 414.94 220.68 Z" />
<path fill="#ffffff" d=" M 113.72 229.37 C 116.99 227.20 120.17 224.90 123.27 222.50 C 123.84 233.14 123.25 243.80 123.59 254.44 C 124.96 254.92 126.34 255.37 127.73 255.81 C 127.65 256.33 127.48 257.36 127.40 257.88 C 123.05 257.37 118.68 257.44 114.32 257.63 L 113.14 255.82 C 114.01 255.62 115.74 255.23 116.60 255.04 C 117.00 247.66 116.98 240.25 116.72 232.87 C 116.89 230.99 114.83 230.39 113.72 229.37 Z" />
<path fill="#ffffff" d=" M 244.77 229.25 C 248.10 227.14 251.31 224.89 254.43 222.49 C 255.10 232.65 254.40 242.85 254.80 253.01 C 254.56 255.39 257.49 255.18 258.99 255.91 C 258.89 256.40 258.67 257.36 258.57 257.84 C 254.28 257.39 249.98 257.34 245.69 257.67 C 245.31 257.32 244.55 256.63 244.17 256.28 C 245.47 255.58 246.79 254.93 248.10 254.27 C 247.99 247.14 248.39 239.99 247.95 232.87 C 247.97 230.99 245.84 230.38 244.77 229.25 Z" />
<path fill="#ffffff" d=" M 301.28 229.54 C 305.52 222.00 317.84 220.88 323.01 227.99 C 324.92 230.23 325.43 233.23 325.36 236.10 C 318.66 236.74 311.91 236.22 305.20 236.44 C 305.40 240.58 304.95 245.04 306.93 248.85 C 308.96 251.45 311.42 254.55 315.06 254.53 C 319.28 255.09 322.13 251.52 325.40 249.56 C 324.81 254.39 320.10 257.17 315.91 258.62 C 309.42 260.99 301.59 256.60 299.89 250.00 C 297.35 243.40 297.94 235.75 301.28 229.54 Z" />
<path fill="#ffffff" d=" M 327.33 229.52 C 330.57 227.39 333.63 225.00 336.68 222.61 C 336.87 224.43 337.00 226.25 337.12 228.07 C 339.40 226.00 341.50 222.97 344.92 223.00 C 346.61 223.46 347.87 224.74 349.23 225.77 C 349.34 226.73 349.55 228.64 349.65 229.60 C 348.50 230.64 347.30 231.62 346.07 232.54 C 343.86 231.36 341.79 229.96 339.83 228.43 C 339.30 228.88 338.24 229.78 337.71 230.23 C 336.94 238.18 337.07 246.28 337.54 254.24 C 339.17 254.94 340.91 255.32 342.63 255.76 C 342.59 256.28 342.49 257.31 342.45 257.83 C 337.17 257.50 331.89 257.26 326.62 257.79 C 326.55 257.28 326.42 256.24 326.35 255.73 C 327.80 255.37 329.25 255.00 330.70 254.63 C 330.78 247.40 330.79 240.16 330.73 232.93 C 331.24 230.73 328.64 230.48 327.33 229.52 Z" />
<path fill="#ffffff" d=" M 352.29 229.35 C 356.41 222.65 366.78 221.03 372.57 226.48 C 375.10 228.85 376.97 232.94 375.20 236.21 C 368.77 236.71 362.31 236.17 355.87 236.42 C 355.68 241.53 355.84 247.39 359.81 251.18 C 362.05 254.28 366.35 255.43 369.85 253.93 C 372.09 252.80 373.91 251.02 375.97 249.62 C 375.86 254.36 371.05 256.95 367.20 258.50 C 361.38 260.85 354.74 257.60 351.65 252.52 C 348.60 245.25 348.24 236.28 352.29 229.35 Z" />
<path fill="#ffffff" d=" M 376.87 229.68 C 379.94 227.28 383.24 225.19 386.37 222.89 C 386.43 224.87 386.44 226.86 386.45 228.85 C 388.93 226.09 392.05 223.15 396.04 223.23 C 399.13 222.99 402.16 224.61 404.04 227.00 C 406.54 230.85 405.77 235.68 405.98 240.03 C 406.19 244.89 405.44 249.86 406.38 254.64 C 407.93 255.23 409.55 255.60 411.14 256.11 C 410.60 256.53 409.51 257.39 408.97 257.81 C 404.75 257.35 400.52 257.29 396.31 257.92 C 396.21 257.31 395.99 256.11 395.88 255.50 C 396.78 255.39 398.57 255.18 399.47 255.08 C 399.88 249.05 399.73 243.01 399.74 236.98 C 399.76 233.91 399.21 230.18 396.19 228.60 C 392.40 225.97 386.98 229.58 386.96 233.92 C 386.55 240.73 386.87 247.57 386.81 254.40 C 388.21 254.87 389.62 255.32 391.05 255.76 C 390.97 256.28 390.82 257.33 390.75 257.85 C 386.14 257.35 381.52 257.40 376.91 257.80 C 376.90 257.31 376.89 256.31 376.88 255.81 C 378.09 255.43 379.28 254.98 380.45 254.47 C 380.70 247.35 380.57 240.22 380.53 233.10 C 380.90 230.88 378.24 230.64 376.87 229.68 Z" />
<path fill="#0f0f0f" d=" M 310.48 225.43 C 312.17 225.04 313.93 225.22 315.65 225.22 C 317.73 227.24 319.76 230.77 316.89 233.11 C 313.33 234.71 309.25 234.00 305.47 234.20 C 305.73 230.72 307.20 227.08 310.48 225.43 Z" />
<path fill="#0f0f0f" d=" M 356.16 234.06 C 356.76 230.13 359.12 224.88 363.81 225.07 C 367.56 224.62 370.96 229.38 368.48 232.57 C 364.90 235.00 360.22 233.86 356.16 234.06 Z" />
<path fill="#0f0f0f" d=" M 222.54 226.65 C 225.14 224.79 230.68 224.36 231.27 228.47 C 232.67 234.21 231.92 240.18 232.13 246.03 C 231.98 248.99 232.61 252.41 230.73 254.96 C 227.93 255.89 224.68 255.46 222.14 253.99 C 214.84 246.86 215.84 233.78 222.54 226.65 Z" />
<path fill="#ffffff" d=" M 433.64 250.62 C 438.30 248.31 440.82 255.93 436.76 258.06 C 432.52 259.91 430.19 252.85 433.64 250.62 Z" />
</svg>
